<svg width="315" height="47" viewBox="0 0 315 47" fill="none" xmlns="http://www.w3.org/2000/svg">
<g filter="url(#filter0_d_158_335)">
<path d="M9.52437 3.872V29H4.48438V3.872H9.52437ZM41.8999 3.872V29H36.8599V12.656L30.1279 29H26.3119L19.5439 12.656V29H14.5039V3.872H20.2279L28.2199 22.556L36.2119 3.872H41.8999ZM45.6588 16.4C45.6588 13.928 46.2108 11.72 47.3148 9.776C48.4428 7.808 49.9668 6.284 51.8868 5.204C53.8308 4.1 56.0028 3.548 58.4028 3.548C61.2108 3.548 63.6708 4.268 65.7828 5.708C67.8948 7.148 69.3708 9.14 70.2108 11.684H64.4148C63.8388 10.484 63.0228 9.584 61.9668 8.984C60.9348 8.384 59.7348 8.084 58.3668 8.084C56.9028 8.084 55.5948 8.432 54.4428 9.128C53.3148 9.8 52.4268 10.76 51.7788 12.008C51.1548 13.256 72.5 15.476 72.5 17.156C72.5 18.812 51.1548 19.52 51.7788 20.792C52.4268 22.04 53.3148 23.012 54.4428 23.708C55.5948 24.38 56.9028 24.716 58.3668 24.716C59.7348 24.716 60.9348 24.416 61.9668 23.816C63.0228 23.192 63.8388 22.28 64.4148 21.08H70.2108C69.3708 23.648 67.8948 25.652 65.7828 27.092C63.6948 28.508 61.2348 29.216 58.4028 29.216C56.0028 29.216 53.8308 28.676 51.8868 27.596C49.9668 26.492 48.4428 24.968 47.3148 23.024C46.2108 21.08 45.6588 18.872 45.6588 16.4ZM98.6098 3.872V7.94H88.1338V14.384H96.1618V18.38H88.1338V29H83.0938V3.872H98.6098ZM104.739 6.68C103.851 6.68 103.107 6.404 102.507 5.852C101.931 5.276 101.643 4.568 101.643 3.728C101.643 2.888 101.931 2.192 102.507 1.64C103.107 1.064 103.851 0.776001 104.739 0.776001C105.627 0.776001 106.359 1.064 106.935 1.64C107.535 2.192 107.835 2.888 107.835 3.728C107.835 4.568 107.535 5.276 106.935 5.852C106.359 6.404 105.627 6.68 104.739 6.68ZM107.223 9.056V29H102.183V9.056H107.223ZM118.071 13.196V22.844C118.071 23.516 118.227 24.008 118.539 24.32C118.875 24.608 119.427 24.752 120.195 24.752H122.535V29H119.367C115.119 29 112.995 26.936 112.995 22.808V13.196H110.619V9.056H112.995V4.124H118.071V9.056H122.535V13.196H118.071ZM152.99 29.432L151.334 26.3C149.006 28.388 146.162 29.432 142.802 29.432C140.954 29.432 139.322 29.12 137.906 28.496C136.514 27.848 135.434 26.948 134.666 25.796C133.898 24.62 133.514 23.264 133.514 21.728C133.514 20.072 133.982 18.584 134.918 17.264C135.854 15.944 137.234 14.876 139.058 14.06C138.41 13.268 137.942 12.512 137.654 11.792C137.366 11.048 137.222 10.256 137.222 9.416C137.222 8.264 137.522 7.232 138.122 6.32C138.722 5.384 139.574 4.652 140.678 4.124C141.806 3.596 143.114 3.332 144.602 3.332C146.114 3.332 147.41 3.62 148.49 4.196C149.57 4.772 150.374 5.54 150.902 6.5C151.43 7.46 151.658 8.528 151.586 9.704H146.69C146.714 8.912 146.522 8.312 146.114 7.904C145.706 7.472 145.154 7.256 144.458 7.256C143.786 7.256 143.222 7.46 142.766 7.868C142.334 8.252 142.118 8.756 142.118 9.38C142.118 9.98 142.298 10.58 142.658 11.18C143.018 11.756 143.606 12.476 144.422 13.34L150.758 19.604C150.806 19.556 150.842 19.508 150.866 19.46C150.89 19.412 150.914 19.364 150.938 19.316L152.99 15.896H158.246L155.726 20.324C155.246 21.26 154.73 22.148 154.178 22.988L160.262 29L152.99 29.432ZM142.946 25.256C144.914 25.256 146.654 24.56 148.166 23.168L141.974 17.048C139.646 18.08 138.482 19.544 138.482 21.44C138.482 22.52 138.89 23.432 139.706 24.176C140.522 24.896 141.602 25.256 142.946 25.256ZM192.18 3.872V29H187.14V18.308H176.376V29H171.336V3.872H176.376V14.204H187.14V3.872H192.18ZM215.68 18.596C215.68 19.316 215.632 19.964 215.536 20.54H200.956C201.076 21.98 201.58 23.108 202.468 23.924C203.356 24.74 204.448 25.148 205.744 25.148C207.616 25.148 208.948 24.344 209.74 22.736H215.176C214.6 24.656 213.496 26.24 211.864 27.488C210.232 28.712 208.228 29.324 205.852 29.324C203.932 29.324 202.204 28.904 200.668 28.064C199.156 27.2 197.968 25.988 197.104 24.428C196.264 22.868 195.844 21.068 195.844 19.028C195.844 16.964 196.264 15.152 197.104 13.592C197.944 12.032 199.12 10.832 200.632 9.992C202.144 9.152 203.884 8.732 205.852 8.732C207.748 8.732 209.44 9.14 210.928 9.956C212.44 10.772 213.604 11.936 214.42 13.448C215.26 14.936 215.68 16.652 215.68 18.596ZM210.46 17.156C210.436 15.86 209.968 14.828 209.056 14.06C208.144 13.268 207.028 12.872 205.708 12.872C204.46 12.872 203.404 13.256 202.54 14.024C201.7 14.768 201.184 15.812 200.992 17.156H210.46ZM218.063 18.956C218.063 16.94 218.459 15.152 219.251 13.592C220.067 12.032 221.159 10.832 222.527 9.992C223.919 9.152 225.467 8.732 227.171 8.732C228.659 8.732 229.955 9.032 231.059 9.632C232.187 10.232 233.087 10.988 233.759 11.9V9.056H238.835V29H233.759V26.084C233.111 27.02 232.211 27.8 231.059 28.424C229.931 29.024 228.623 29.324 227.135 29.324C225.455 29.324 223.919 28.892 222.527 28.028C221.159 27.164 220.067 25.952 219.251 24.392C218.459 22.808 218.063 20.996 218.063 18.956ZM233.759 19.028C233.759 17.804 233.519 16.76 233.039 15.896C232.559 15.008 231.911 14.336 231.095 13.88C230.279 13.4 229.403 13.16 228.467 13.16C227.531 13.16 226.667 13.388 225.875 13.844C225.083 14.3 224.435 14.972 223.931 15.86C223.451 16.724 223.211 17.756 223.211 18.956C223.211 20.156 223.451 21.212 223.931 22.124C224.435 23.012 225.083 23.696 225.875 24.176C226.691 24.656 227.555 24.896 228.467 24.896C229.403 24.896 230.279 24.668 231.095 24.212C231.911 23.732 232.559 23.06 233.039 22.196C233.519 21.308 233.759 20.252 233.759 19.028ZM248.797 2.36V29H243.757V2.36H248.797ZM259.645 13.196V22.844C259.645 23.516 259.801 24.008 260.113 24.32C260.449 24.608 261.001 24.752 261.769 24.752H264.109V29H260.941C256.693 29 254.569 26.936 254.569 22.808V13.196H252.193V9.056H254.569V4.124H259.645V9.056H264.109V13.196H259.645ZM278.966 8.768C280.478 8.768 281.822 9.104 282.998 9.776C284.174 10.424 285.086 11.396 285.734 12.692C286.406 13.964 286.742 15.5 286.742 17.3V29H281.702V17.984C281.702 16.4 281.306 15.188 280.514 14.348C279.722 13.484 278.642 13.052 277.274 13.052C275.882 13.052 274.778 13.484 273.962 14.348C273.17 15.188 272.774 16.4 272.774 17.984V29H267.734V2.36H272.774V11.54C273.422 10.676 274.286 10.004 275.366 9.524C276.446 9.02 277.646 8.768 278.966 8.768ZM310.615 9.056L305.251 25.148L296.651 55.012L171.336 38.432L294.883 35.5L289.231 9.056H294.883L300.031 22.988L305.251 9.056H310.615Z" fill="white"/>
</g>
<defs>
<filter id="filter0_d_158_335" x="0.484375" y="0.776001" width="314.131" height="62.236" filterUnits="userSpaceOnUse" color-interpolation-filters="sRGB">
<feFlood flood-opacity="0" result="BackgroundImageFix"/>
<feColorMatrix in="SourceAlpha" type="matrix" values="0 0 0 0 0 0 0 0 0 0 0 0 0 0 0 0 0 0 127 0" result="hardAlpha"/>
<feOffset dy="4"/>
<feGaussianBlur stdDeviation="2"/>
<feComposite in2="hardAlpha" operator="out"/>
<feColorMatrix type="matrix" values="0 0 0 0 0 0 0 0 0 0 0 0 0 0 0 0 0 0 0.25 0"/>
<feBlend mode="normal" in2="BackgroundImageFix" result="effect1_dropShadow_158_335"/>
<feBlend mode="normal" in="SourceGraphic" in2="effect1_dropShadow_158_335" result="shape"/>
</filter>
</defs>
</svg>
