<svg width="307" height="47" viewBox="0 0 307 47" fill="none" xmlns="http://www.w3.org/2000/svg">
<path d="M5.52437 3.872V29H0.484375V3.872H5.52437ZM37.8999 3.872V29H32.8599V12.656L26.1279 29H22.3119L15.5439 12.656V29H10.5039V3.872H16.2279L24.2199 22.556L32.2119 3.872H37.8999ZM41.6588 16.4C41.6588 13.928 42.2108 11.72 43.3148 9.776C44.4428 7.808 45.9668 6.284 47.8868 5.204C49.8308 4.1 52.0028 3.548 54.4028 3.548C57.2108 3.548 59.6708 4.268 61.7828 5.708C63.8948 7.148 65.3708 9.14 66.2108 11.684H60.4148C59.8388 10.484 59.0228 9.584 57.9668 8.984C56.9348 8.384 55.7348 8.084 54.3668 8.084C52.9028 8.084 51.5948 8.432 50.4428 9.128C49.3148 9.8 48.4268 10.76 47.7788 12.008C47.1548 13.256 68.5 15.476 68.5 17.156C68.5 18.812 47.1548 19.52 47.7788 20.792C48.4268 22.04 49.3148 23.012 50.4428 23.708C51.5948 24.38 52.9028 24.716 54.3668 24.716C55.7348 24.716 56.9348 24.416 57.9668 23.816C59.0228 23.192 59.8388 22.28 60.4148 21.08H66.2108C65.3708 23.648 63.8948 25.652 61.7828 27.092C59.6948 28.508 57.2348 29.216 54.4028 29.216C52.0028 29.216 49.8308 28.676 47.8868 27.596C45.9668 26.492 44.4428 24.968 43.3148 23.024C42.2108 21.08 41.6588 18.872 41.6588 16.4ZM94.6098 3.872V7.94H84.1338V14.384H92.1618V18.38H84.1338V29H79.0938V3.872H94.6098ZM100.739 6.68C99.8514 6.68 99.1074 6.404 98.5074 5.852C97.9314 5.276 97.6434 4.568 97.6434 3.728C97.6434 2.888 97.9314 2.192 98.5074 1.64C99.1074 1.064 99.8514 0.776001 100.739 0.776001C101.627 0.776001 102.359 1.064 102.935 1.64C103.535 2.192 103.835 2.888 103.835 3.728C103.835 4.568 103.535 5.276 102.935 5.852C102.359 6.404 101.627 6.68 100.739 6.68ZM103.223 9.056V29H98.1834V9.056H103.223ZM114.071 13.196V22.844C114.071 23.516 114.227 24.008 114.539 24.32C114.875 24.608 115.427 24.752 116.195 24.752H118.535V29H115.367C111.119 29 108.995 26.936 108.995 22.808V13.196H106.619V9.056H108.995V4.124H114.071V9.056H118.535V13.196H114.071ZM148.99 29.432L147.334 26.3C145.006 28.388 142.162 29.432 138.802 29.432C136.954 29.432 135.322 29.12 133.906 28.496C132.514 27.848 131.434 26.948 130.666 25.796C129.898 24.62 129.514 23.264 129.514 21.728C129.514 20.072 129.982 18.584 130.918 17.264C131.854 15.944 133.234 14.876 135.058 14.06C134.41 13.268 133.942 12.512 133.654 11.792C133.366 11.048 133.222 10.256 133.222 9.416C133.222 8.264 133.522 7.232 134.122 6.32C134.722 5.384 135.574 4.652 136.678 4.124C137.806 3.596 139.114 3.332 140.602 3.332C142.114 3.332 143.41 3.62 144.49 4.196C145.57 4.772 146.374 5.54 146.902 6.5C147.43 7.46 147.658 8.528 147.586 9.704H142.69C142.714 8.912 142.522 8.312 142.114 7.904C141.706 7.472 141.154 7.256 140.458 7.256C139.786 7.256 139.222 7.46 138.766 7.868C138.334 8.252 138.118 8.756 138.118 9.38C138.118 9.98 138.298 10.58 138.658 11.18C139.018 11.756 139.606 12.476 140.422 13.34L146.758 19.604C146.806 19.556 146.842 19.508 146.866 19.46C146.89 19.412 146.914 19.364 146.938 19.316L148.99 15.896H154.246L151.726 20.324C151.246 21.26 150.73 22.148 150.178 22.988L156.262 29L148.99 29.432ZM138.946 25.256C140.914 25.256 142.654 24.56 144.166 23.168L137.974 17.048C135.646 18.08 134.482 19.544 134.482 21.44C134.482 22.52 134.89 23.432 135.706 24.176C136.522 24.896 137.602 25.256 138.946 25.256ZM188.18 3.872V29H183.14V18.308H172.376V29H167.336V3.872H172.376V14.204H183.14V3.872H188.18ZM211.68 18.596C211.68 19.316 211.632 19.964 211.536 20.54H196.956C197.076 21.98 197.58 23.108 198.468 23.924C199.356 24.74 200.448 25.148 201.744 25.148C203.616 25.148 204.948 24.344 205.74 22.736H211.176C210.6 24.656 209.496 26.24 207.864 27.488C206.232 28.712 204.228 29.324 201.852 29.324C199.932 29.324 198.204 28.904 196.668 28.064C195.156 27.2 193.968 25.988 193.104 24.428C192.264 22.868 191.844 21.068 191.844 19.028C191.844 16.964 192.264 15.152 193.104 13.592C193.944 12.032 195.12 10.832 196.632 9.992C198.144 9.152 199.884 8.732 201.852 8.732C203.748 8.732 205.44 9.14 206.928 9.956C208.44 10.772 209.604 11.936 210.42 13.448C211.26 14.936 211.68 16.652 211.68 18.596ZM206.46 17.156C206.436 15.86 205.968 14.828 205.056 14.06C204.144 13.268 203.028 12.872 201.708 12.872C200.46 12.872 199.404 13.256 198.54 14.024C197.7 14.768 197.184 15.812 196.992 17.156H206.46ZM214.063 18.956C214.063 16.94 214.459 15.152 215.251 13.592C216.067 12.032 217.159 10.832 218.527 9.992C219.919 9.152 221.467 8.732 223.171 8.732C224.659 8.732 225.955 9.032 227.059 9.632C228.187 10.232 229.087 10.988 229.759 11.9V9.056H234.835V29H229.759V26.084C229.111 27.02 228.211 27.8 227.059 28.424C225.931 29.024 224.623 29.324 223.135 29.324C221.455 29.324 219.919 28.892 218.527 28.028C217.159 27.164 216.067 25.952 215.251 24.392C214.459 22.808 214.063 20.996 214.063 18.956ZM229.759 19.028C229.759 17.804 229.519 16.76 229.039 15.896C228.559 15.008 227.911 14.336 227.095 13.88C226.279 13.4 225.403 13.16 224.467 13.16C223.531 13.16 222.667 13.388 221.875 13.844C221.083 14.3 220.435 14.972 219.931 15.86C219.451 16.724 219.211 17.756 219.211 18.956C219.211 20.156 219.451 21.212 219.931 22.124C220.435 23.012 221.083 23.696 221.875 24.176C222.691 24.656 223.555 24.896 224.467 24.896C225.403 24.896 226.279 24.668 227.095 24.212C227.911 23.732 228.559 23.06 229.039 22.196C229.519 21.308 229.759 20.252 229.759 19.028ZM244.797 2.36V29H239.757V2.36H244.797ZM255.645 13.196V22.844C255.645 23.516 255.801 24.008 256.113 24.32C256.449 24.608 257.001 24.752 257.769 24.752H260.109V29H256.941C252.693 29 250.569 26.936 250.569 22.808V13.196H248.193V9.056H250.569V4.124H255.645V9.056H260.109V13.196H255.645ZM274.966 8.768C276.478 8.768 277.822 9.104 278.998 9.776C280.174 10.424 281.086 11.396 281.734 12.692C282.406 13.964 282.742 15.5 282.742 17.3V29H277.702V17.984C277.702 16.4 277.306 15.188 276.514 14.348C275.722 13.484 274.642 13.052 273.274 13.052C271.882 13.052 270.778 13.484 269.962 14.348C269.17 15.188 268.774 16.4 268.774 17.984V29H263.734V2.36H268.774V11.54C269.422 10.676 270.286 10.004 271.366 9.524C272.446 9.02 273.646 8.768 274.966 8.768ZM306.615 9.056L301.251 25.148L292.651 55.012L167.336 38.432L290.883 35.5L285.231 9.056H290.883L296.031 22.988L301.251 9.056H306.615Z" fill="white"/>
</svg>
